<?xml version="1.0" encoding="UTF-8" standalone="no"?>
<svg
   height="16px"
   viewBox="0 0 16 16"
   width="16px"
   version="1.1"
   id="svg1"
   sodipodi:docname="filled-rectangle-symbolic.svg"
   inkscape:version="1.3 (0e150ed6c4, 2023-07-21)"
   xmlns:inkscape="http://www.inkscape.org/namespaces/inkscape"
   xmlns:sodipodi="http://sodipodi.sourceforge.net/DTD/sodipodi-0.dtd"
   xmlns="http://www.w3.org/2000/svg"
   xmlns:svg="http://www.w3.org/2000/svg">
  <defs
     id="defs1" />
  <sodipodi:namedview
     id="namedview1"
     pagecolor="#ffffff"
     bordercolor="#000000"
     borderopacity="0.25"
     inkscape:showpageshadow="2"
     inkscape:pageopacity="0.0"
     inkscape:pagecheckerboard="0"
     inkscape:deskcolor="#d1d1d1"
     inkscape:zoom="48.0625"
     inkscape:cx="8.0416125"
     inkscape:cy="9.4148244"
     inkscape:window-width="1920"
     inkscape:window-height="1011"
     inkscape:window-x="0"
     inkscape:window-y="0"
     inkscape:window-maximized="1"
     inkscape:current-layer="svg1" />
  <path
     id="ellipse2"
     style="font-variation-settings:'wght' 785;fill:#000000;fill-opacity:1;stroke:none;stroke-width:1.36884;stroke-linejoin:bevel;paint-order:stroke fill markers"
     d="m 3.0000001,11 c -1.1045696,0 -2,0.895431 -2,2 0,1.104569 0.8954304,2 2,2 C 4.1045696,15 5,14.104569 5,13 5,11.895431 4.1045696,11 3.0000001,11 Z m 0,1 C 3.5522849,12 4.0000002,12.447715 4,13 c 2e-7,0.552285 -0.4477151,1 -0.9999999,1 -0.5522848,0 -1.0000002,-0.447715 -1,-1 -2e-7,-0.552285 0.4477152,-1 1,-1 z" />
  <path
     id="path6"
     style="font-variation-settings:'wght' 785;fill:#000000;fill-opacity:1;stroke:none;stroke-width:1.36884;stroke-linejoin:bevel;paint-order:stroke fill markers"
     d="m 12.994482,4.9999848 c 1.10457,0 2,-0.895431 2,-2 0,-1.104569 -0.89543,-1.9999999 -2,-1.9999999 -1.10457,0 -2,0.8954309 -2,1.9999999 0,1.104569 0.89543,2 2,2 z m 0,-1 c -0.552285,0 -1,-0.447715 -1,-1 0,-0.552285 0.447715,-1 1,-1 0.552285,0 1,0.447715 1,1 0,0.552285 -0.447715,1 -1,1 z" />
  <path
     style="font-variation-settings:'wght' 785;fill:none;fill-opacity:1;stroke:#000000;stroke-width:2.224;stroke-linejoin:miter;stroke-dasharray:none;stroke-opacity:1;paint-order:stroke fill markers"
     d="M 3.0000001,2.9999848 V 12"
     id="path1" />
  <path
     style="font-variation-settings:'wght' 785;fill:none;fill-opacity:1;stroke:#000000;stroke-width:2.224;stroke-linejoin:miter;stroke-dasharray:none;stroke-opacity:1;paint-order:stroke fill markers"
     d="M 11.994482,2.9999848 H 1.8880001"
     id="path2" />
  <path
     style="font-variation-settings:'wght' 785;fill:none;fill-opacity:1;stroke:#000000;stroke-width:2.224;stroke-linejoin:miter;stroke-dasharray:none;stroke-opacity:1;paint-order:stroke fill markers"
     d="M 12.994482,13 V 3.9999848"
     id="path3" />
  <path
     style="font-variation-settings:'wght' 785;fill:none;fill-opacity:1;stroke:#000000;stroke-width:2.224;stroke-linejoin:miter;stroke-dasharray:none;stroke-opacity:1;paint-order:stroke fill markers"
     d="M 4,13 H 14.106482"
     id="path4" />
  <rect
     style="font-variation-settings:'wght' 785;fill:#000000;fill-opacity:1;stroke:none;stroke-width:13.2501;paint-order:stroke fill markers"
     id="rect1"
     width="8.5799799"
     height="8.5860891"
     x="3.7072513"
     y="3.7069478"
     rx="5.7112663e-07"
     ry="6.4913472e-08" />
</svg>
