<?xml version="1.0" encoding="UTF-8" standalone="no"?>
<svg
   height="16px"
   viewBox="0 0 16 16"
   width="16px"
   version="1.1"
   id="svg1"
   sodipodi:docname="function-exponential-symbolic.svg"
   inkscape:version="1.3 (0e150ed6c4, 2023-07-21)"
   xmlns:inkscape="http://www.inkscape.org/namespaces/inkscape"
   xmlns:sodipodi="http://sodipodi.sourceforge.net/DTD/sodipodi-0.dtd"
   xmlns="http://www.w3.org/2000/svg"
   xmlns:svg="http://www.w3.org/2000/svg">
  <defs
     id="defs1" />
  <sodipodi:namedview
     id="namedview1"
     pagecolor="#ffffff"
     bordercolor="#000000"
     borderopacity="0.25"
     inkscape:showpageshadow="2"
     inkscape:pageopacity="0.0"
     inkscape:pagecheckerboard="0"
     inkscape:deskcolor="#d1d1d1"
     showgrid="false"
     inkscape:zoom="32"
     inkscape:cx="5.859375"
     inkscape:cy="4.296875"
     inkscape:window-width="1920"
     inkscape:window-height="1011"
     inkscape:window-x="0"
     inkscape:window-y="0"
     inkscape:window-maximized="1"
     inkscape:current-layer="svg1" />
  <path
     id="ellipse2"
     style="font-variation-settings:'wght' 785;fill:#000000;fill-opacity:1;stroke:none;stroke-width:1.36884;stroke-linejoin:bevel;paint-order:stroke fill markers"
     d="m 3,11 c -1.1045696,0 -2,0.895431 -2,2 0,1.104569 0.8954304,2 2,2 1.1045696,0 2,-0.895431 2,-2 0,-1.104569 -0.8954304,-2 -2,-2 z m 0,1 c 0.5522848,0 1.0000001,0.447715 1,1 1e-7,0.552285 -0.4477152,1 -1,1 -0.5522848,0 -1.0000001,-0.447715 -1,-1 -1e-7,-0.552285 0.4477152,-1 1,-1 z"
     sodipodi:nodetypes="ssssssssss" />
  <path
     id="path2"
     style="font-variation-settings:'wght' 785;fill:#000000;fill-opacity:1;stroke:none;stroke-width:1.36884;stroke-linejoin:bevel;paint-order:stroke fill markers"
     d="m 12.994482,6 a 2.0000005,2 0 0 0 -2,2 2.0000005,2 0 0 0 2,2 2.0000005,2 0 0 0 2,-2 2.0000005,2 0 0 0 -2,-2 z m 0,1 a 1,0.99999988 0 0 1 1,1 1,0.99999988 0 0 1 -1,1 1,0.99999988 0 0 1 -1,-1 1,0.99999988 0 0 1 1,-1 z" />
  <path
     id="path3"
     style="font-variation-settings:'wght' 785;fill:#000000;fill-opacity:1;stroke:none;stroke-width:1.36884;stroke-linejoin:bevel;paint-order:stroke fill markers"
     d="m 2.9944822,6 a 2.0000005,2 0 0 0 -1.99999995,2 2.0000005,2 0 0 0 1.99999995,2 2.0000005,2 0 0 0 2,-2 2.0000005,2 0 0 0 -2,-2 z m 0,1 a 1,0.99999988 0 0 1 1,1 1,0.99999988 0 0 1 -1,1 1,0.99999988 0 0 1 -1,-1 1,0.99999988 0 0 1 1,-1 z" />
  <path
     style="font-variation-settings:'wght' 785;fill:none;fill-opacity:1;stroke:#000000;stroke-width:2.224;stroke-linejoin:bevel;stroke-dasharray:none;stroke-opacity:1;paint-order:stroke fill markers"
     d="M 4.2181947,8 H 11.781805"
     id="path4"
     sodipodi:nodetypes="cc" />
  <path
     style="font-variation-settings:'wght' 785;fill:none;fill-opacity:1;stroke:#000000;stroke-width:2.224;stroke-linejoin:bevel;stroke-dasharray:none;stroke-opacity:1;paint-order:stroke fill markers"
     d="M 3,12 3,8.9999848"
     id="path5"
     sodipodi:nodetypes="cc" />
  <path
     id="path6"
     style="font-variation-settings:'wght' 785;fill:#000000;fill-opacity:1;stroke:none;stroke-width:1.36884;stroke-linejoin:bevel;paint-order:stroke fill markers"
     d="m 12.994482,4.9999848 c 1.10457,0 2,-0.895431 2,-2 0,-1.104569 -0.89543,-1.9999999 -2,-1.9999999 -1.10457,0 -2,0.8954309 -2,1.9999999 0,1.104569 0.89543,2 2,2 z m 0,-1 c -0.552285,0 -1,-0.447715 -1,-1 0,-0.552285 0.447715,-1 1,-1 0.552285,0 1,0.447715 1,1 0,0.552285 -0.447715,1 -1,1 z"
     sodipodi:nodetypes="ssssssssss" />
  <path
     style="font-variation-settings:'wght' 785;fill:none;fill-opacity:1;stroke:#000000;stroke-width:2.224;stroke-linejoin:bevel;stroke-dasharray:none;stroke-opacity:1;paint-order:stroke fill markers"
     d="M 12.994482,7 V 3.9999848"
     id="path8"
     sodipodi:nodetypes="cc" />
</svg>
