<?xml version="1.0" encoding="UTF-8" standalone="no"?>
<svg xmlns="http://www.w3.org/2000/svg" height="16px" viewBox="0 0 16 16" width="16px">
  <path
     id="ellipse2"
     style="font-variation-settings:'wght' 785;fill:#000000;fill-opacity:1;stroke:none;stroke-width:1.36884;stroke-linejoin:bevel;paint-order:stroke fill markers"
     d="m 3.0000001,11 c -1.1045696,0 -2,0.895431 -2,2 0,1.104569 0.8954304,2 2,2 C 4.1045696,15 5,14.104569 5,13 5,11.895431 4.1045696,11 3.0000001,11 Z m 0,1 C 3.5522849,12 4.0000002,12.447715 4,13 c 2e-7,0.552285 -0.4477151,1 -0.9999999,1 -0.5522848,0 -1.0000002,-0.447715 -1,-1 -2e-7,-0.552285 0.4477152,-1 1,-1 z"
/>
  <path
     id="path6"
     style="font-variation-settings:'wght' 785;fill:#000000;fill-opacity:1;stroke:none;stroke-width:1.36884;stroke-linejoin:bevel;paint-order:stroke fill markers"
     d="m 12.994482,4.9999848 c 1.10457,0 2,-0.895431 2,-2 0,-1.104569 -0.89543,-1.9999999 -2,-1.9999999 -1.10457,0 -2,0.8954309 -2,1.9999999 0,1.104569 0.89543,2 2,2 z m 0,-1 c -0.552285,0 -1,-0.447715 -1,-1 0,-0.552285 0.447715,-1 1,-1 0.552285,0 1,0.447715 1,1 0,0.552285 -0.447715,1 -1,1 z"
/>
  <path
     style="font-variation-settings:'wght' 785;fill:none;fill-opacity:1;stroke:#000000;stroke-width:2.224;stroke-linejoin:miter;stroke-dasharray:none;stroke-opacity:1;paint-order:stroke fill markers"
     d="M 3.0000001,2.9999848 V 12"
     id="path1"
/>
  <path
     style="font-variation-settings:'wght' 785;fill:none;fill-opacity:1;stroke:#000000;stroke-width:2.224;stroke-linejoin:miter;stroke-dasharray:none;stroke-opacity:1;paint-order:stroke fill markers"
     d="M 11.994482,2.9999848 H 1.8880001"
     id="path2"
/>
  <path
     style="font-variation-settings:'wght' 785;fill:none;fill-opacity:1;stroke:#000000;stroke-width:2.224;stroke-linejoin:miter;stroke-dasharray:none;stroke-opacity:1;paint-order:stroke fill markers"
     d="M 12.994482,13 V 3.9999848"
     id="path3"
/>
  <path
     style="font-variation-settings:'wght' 785;fill:none;fill-opacity:1;stroke:#000000;stroke-width:2.224;stroke-linejoin:miter;stroke-dasharray:none;stroke-opacity:1;paint-order:stroke fill markers"
     d="M 4,13 H 14.106482"
     id="path4"
/>
</svg>

