<?xml version="1.0" encoding="UTF-8" standalone="no"?>
<svg
   height="16px"
   viewBox="0 0 16 16"
   width="16px"
   version="1.1"
   id="svg1"
   sodipodi:docname="filled-rectangle-symbolic.svg"
   inkscape:version="1.4.2 (ebf0e940d0, 2025-05-08)"
   xmlns:inkscape="http://www.inkscape.org/namespaces/inkscape"
   xmlns:sodipodi="http://sodipodi.sourceforge.net/DTD/sodipodi-0.dtd"
   xmlns="http://www.w3.org/2000/svg"
   xmlns:svg="http://www.w3.org/2000/svg">
  <defs
     id="defs1" />
  <sodipodi:namedview
     id="namedview1"
     pagecolor="#ffffff"
     bordercolor="#000000"
     borderopacity="0.25"
     inkscape:showpageshadow="2"
     inkscape:pageopacity="0.0"
     inkscape:pagecheckerboard="0"
     inkscape:deskcolor="#d1d1d1"
     inkscape:zoom="47.4375"
     inkscape:cx="8"
     inkscape:cy="8"
     inkscape:window-width="1920"
     inkscape:window-height="1011"
     inkscape:window-x="0"
     inkscape:window-y="0"
     inkscape:window-maximized="1"
     inkscape:current-layer="svg1" />
  <path
     d="m 1,1 v 4 h 1 v 9 h 9 v 1 h 4 V 11 H 14 V 4.730469 C 14.597656,4.382812 15,3.734375 15,3 15,1.902344 14.097656,1 13,1 12.265625,1 11.617188,1.402344 11.269531,2 H 5 V 1 Z M 2,2 H 4 V 4 H 2 Z m 11,0 c 0.558594,0 1,0.441406 1,1 0,0.558594 -0.441406,1 -1,1 -0.558594,0 -1,-0.441406 -1,-1 0,-0.558594 0.441406,-1 1,-1 z m -1,10 h 2 v 2 h -2 z"
     fill="#222222"
     id="path1"
     sodipodi:nodetypes="ccccccccccsscccccccccsssssccccc" />
</svg>
