<?xml version="1.0" encoding="UTF-8"?>
<svg height="128px" viewBox="0 0 128 128" width="128px" xmlns="http://www.w3.org/2000/svg" xmlns:xlink="http://www.w3.org/1999/xlink">
    <linearGradient id="a" gradientTransform="matrix(0.232143 0 0 0.328947 -8.566895 263.827845)" gradientUnits="userSpaceOnUse" x1="88.595886" x2="536.595886" y1="-449.394012" y2="-449.394012">
        <stop offset="0" stop-color="#a51d2d"/>
        <stop offset="0.0384615" stop-color="#f66151"/>
        <stop offset="0.0768555" stop-color="#a51d2d"/>
        <stop offset="0.923077" stop-color="#a51d2d"/>
        <stop offset="0.961538" stop-color="#f66151"/>
        <stop offset="1" stop-color="#a51d2d"/>
    </linearGradient>
    <path d="m 20 16 h 88 c 4.417969 0 8 3.582031 8 8 v 84 c 0 4.417969 -3.582031 8 -8 8 h -88 c -4.417969 0 -8 -3.582031 -8 -8 v -84 c 0 -4.417969 3.582031 -8 8 -8 z m 0 0" fill="url(#a)"/>
    <path d="m 20 12 h 88 c 4.417969 0 8 3.582031 8 8 v 84 c 0 4.417969 -3.582031 8 -8 8 h -88 c -4.417969 0 -8 -3.582031 -8 -8 v -84 c 0 -4.417969 3.582031 -8 8 -8 z m 0 0" fill="#a51d2d"/>
    <path d="m 20.007812 19 h 87.984376 c 1.660156 0 3.007812 1.347656 3.007812 3.007812 v 86.984376 c 0 1.660156 -1.347656 3.007812 -3.007812 3.007812 h -87.984376 c -1.660156 0 -3.007812 -1.347656 -3.007812 -3.007812 v -86.984376 c 0 -1.660156 1.347656 -3.007812 3.007812 -3.007812 z m 0 0" fill="#ffffff"/>
    <path d="m -322.654439 224.689052 v -12.001674 h 6.623958 v 1.580145 h -5.140872 v 10.421529 z m 6.246714 -10.421529 v -1.580145 h 11.750035 v 1.580145 z m 11.380188 0 v -1.580145 h 11.750035 v 1.580145 z m 16.502568 10.421529 v -10.421529 h -5.12238 v -1.580145 h 6.609164 v 12.001674 z m 6.250412 -10.421529 v -1.580145 h 11.750035 v 1.580145 z m 16.502567 10.421529 v -10.421529 h -5.126078 v -1.580145 h 6.609164 v 12.001674 z m -61.823603 -22.2623" stroke="#000000" stroke-linejoin="round" transform="matrix(1.05618 0 0 0.946808 368.000031 -171.99912)"/>
    <path d="m -322.654439 248.304584 v -22.43558 h 1.483086 v 22.43558 z m 14.638539 -18.483156 h 1.749376 l -7.248998 15.512649 h -1.76417 z m 11.380189 0 h 1.749375 l -7.248998 15.512649 h -1.767868 z m 8.110742 18.483156 v -22.43558 h 1.486784 v 22.43558 z m 23.50007 -4.001933 l -5.625371 -11.24667 h 11.250742 z m -62.570694 -18.256242" stroke="#000000" stroke-linejoin="round" transform="matrix(1.05618 0 0 0.946808 368.000031 -171.99912)"/>
    <path d="m -322.654439 261.506837 v -12.01405 h 1.483086 v 10.438031 h 5.140872 v 1.576019 z m 6.246714 0 v -1.576019 h 11.750035 v 1.576019 z m 11.380188 0 v -1.576019 h 11.750035 v 1.576019 z m 11.380188 0 v -1.576019 h 5.12238 v -10.438031 h 1.486784 v 12.01405 z m 16.498869 10.42153 v -11.997549 h 6.623958 v 1.576019 h -5.140872 v 10.42153 z m 6.250412 -10.42153 v -1.576019 h 11.750035 v 1.576019 z m 16.502568 10.42153 v -10.42153 h -5.122379 v -1.576019 h 6.609163 v 11.997549 z m -73.200093 -22.258175" stroke="#000000" stroke-linejoin="round" transform="matrix(1.05618 0 0 0.946808 368.000031 -171.99912)"/>
    <path d="m -322.654439 285.134746 v -12.018177 h 1.483086 v 10.438032 h 5.140872 v 1.580145 z m 6.246714 0 v -1.580145 h 11.750035 v 1.580145 z m 11.380188 0 v -1.580145 h 11.750035 v 1.580145 z m 12.378775 -3.156164 v -1.691539 l 9.749163 3.86166 v 1.530636 l -9.749163 3.861659 v -1.687413 l 7.844452 -2.925124 z m 15.500282 3.156164 v -12.018177 h 1.483086 v 10.438032 h 5.140872 v 1.580145 z m 6.250412 0 v -1.580145 h 11.750035 v 1.580145 z m 11.380189 0 v -1.580145 h 5.122379 v -10.438032 h 1.486784 v 12.018177 z m -68.077714 -11.840771" stroke="#000000" stroke-linejoin="round" transform="matrix(1.05618 0 0 0.946808 368.000031 -171.99912)"/>
    <g fill="none" stroke="#deddda" stroke-linejoin="bevel">
        <path d="m -321.000031 188.000001 v 91.999031" stroke-width="2.04494" transform="matrix(1 0 0 0.956532 355.000031 -160.827984)"/>
        <path d="m -309.000031 188.000001 v 91.999031" stroke-width="2.04494" transform="matrix(1 0 0 0.956532 355.000031 -160.827984)"/>
        <path d="m -297.000031 188.000001 v 91.999031" stroke-width="2.04494" transform="matrix(1 0 0 0.956532 355.000031 -160.827984)"/>
        <path d="m -285.000031 188.000001 v 91.999031" stroke-width="2.04494" transform="matrix(1 0 0 0.956532 355.000031 -160.827984)"/>
        <path d="m -273.000031 188.000001 v 91.999031" stroke-width="2.04494" transform="matrix(1 0 0 0.956532 355.000031 -160.827984)"/>
        <path d="m -261.000031 188.000001 v 91.999031" stroke-width="2.04494" transform="matrix(1 0 0 0.956532 355.000031 -160.827984)"/>
        <path d="m -242.999726 209.13923 h -95.840551" stroke-width="1.9729" transform="matrix(0.985157 0 0 1.030858 350.463139 -174.698226)"/>
        <path d="m -242.999726 230.825513 h -95.840551" stroke-width="1.9729" transform="matrix(0.985157 0 0 1.030858 350.463139 -174.698226)"/>
        <path d="m -242.999726 252.511796 h -95.840551" stroke-width="1.9729" transform="matrix(0.985157 0 0 1.030858 350.463139 -174.698226)"/>
        <path d="m -242.999726 274.198079 h -95.840551" stroke-width="1.9729" transform="matrix(0.985157 0 0 1.030858 350.463139 -174.698226)"/>
    </g>
    <path d="m 20 12 c -4.433594 0 -8 3.566406 -8 8 v 84 c 0 4.433594 3.566406 8 8 8 h 88 c 4.433594 0 8 -3.566406 8 -8 v -84 c 0 -4.433594 -3.566406 -8 -8 -8 z m 0 5 h 88 c 2 0 3 1 3 3 v 84 c 0 2 -1 3 -3 3 h -88 c -2 0 -3 -1 -3 -3 v -84 c 0 -2 1 -3 3 -3 z m 0 0" fill="#ed333b"/>
    <path d="m -265.024899 244.302651 l -5.625371 -11.24667 h 11.250742 z m -62.570694 -18.256242" stroke="#000000" stroke-linejoin="round" transform="matrix(1.05618 0 0 0.946808 368.000031 -171.99912)"/>
</svg>
