<?xml version="1.0" encoding="UTF-8"?>
<svg height="128px" viewBox="0 0 128 128" width="128px" xmlns="http://www.w3.org/2000/svg" xmlns:xlink="http://www.w3.org/1999/xlink">
    <linearGradient id="a" gradientTransform="matrix(0.232143 0 0 0.328947 -8.566895 263.827845)" gradientUnits="userSpaceOnUse" x1="88.595886" x2="536.595886" y1="-449.394012" y2="-449.394012">
        <stop offset="0" stop-color="#77767b"/>
        <stop offset="0.0384615" stop-color="#c0bfbc"/>
        <stop offset="0.0768555" stop-color="#9a9996"/>
        <stop offset="0.923077" stop-color="#9a9996"/>
        <stop offset="0.961538" stop-color="#c0bfbc"/>
        <stop offset="1" stop-color="#77767b"/>
    </linearGradient>
    <path d="m 20 16 h 88 c 4.417969 0 8 3.582031 8 8 v 84 c 0 4.417969 -3.582031 8 -8 8 h -88 c -4.417969 0 -8 -3.582031 -8 -8 v -84 c 0 -4.417969 3.582031 -8 8 -8 z m 0 0" fill="url(#a)"/>
    <path d="m 20 12 h 88 c 4.417969 0 8 3.582031 8 8 v 84 c 0 4.417969 -3.582031 8 -8 8 h -88 c -4.417969 0 -8 -3.582031 -8 -8 v -84 c 0 -4.417969 3.582031 -8 8 -8 z m 0 0" fill="#deddda"/>
    <path d="m 23.519531 16 h 80.960938 c 4.066406 0 7.359375 3.296875 7.359375 7.359375 v 77.28125 c 0 4.066406 -3.292969 7.359375 -7.359375 7.359375 h -80.960938 c -4.066406 0 -7.359375 -3.292969 -7.359375 -7.359375 v -77.28125 c 0 -4.0625 3.292969 -7.359375 7.359375 -7.359375 z m 0 0" fill="#ffffff"/>
    <g fill="none" stroke-linejoin="bevel">
        <path d="m 22 16 v 92" stroke="#a3a3a3" stroke-width="0.627402"/>
        <path d="m 34 16 v 92" stroke="#a3a3a3" stroke-width="0.627402"/>
        <path d="m 46 16 v 92" stroke="#a3a3a3" stroke-width="0.627402"/>
        <path d="m 58 16 v 92" stroke="#a3a3a3" stroke-width="0.627402"/>
        <path d="m 70 16 v 92" stroke="#a3a3a3" stroke-width="0.627402"/>
        <path d="m 82 16 v 92" stroke="#a3a3a3" stroke-width="0.627402"/>
        <path d="m 94 16 v 92" stroke="#a3a3a3" stroke-width="0.627402"/>
        <path d="m 106 16 v 92" stroke="#a3a3a3" stroke-width="0.627402"/>
        <path d="m 112 37.140625 h -95.839843" stroke="#a3a3a3" stroke-width="0.627402"/>
        <path d="m 112 58.828125 h -95.839843" stroke="#a3a3a3" stroke-width="0.627402"/>
        <path d="m 112 80.515625 h -95.839843" stroke="#a3a3a3" stroke-width="0.627402"/>
        <path d="m 112 102.199219 h -95.839843" stroke="#a3a3a3" stroke-width="0.627402"/>
        <path d="m -322.654439 220.608731 v -11.997548 h 6.623958 v 1.576019 h -5.140872 v 10.421529 z m 6.246714 -10.421529 v -1.576019 h 11.750035 v 1.576019 z m 11.380188 0 v -1.576019 h 11.750035 v 1.576019 z m 11.380188 0 v -1.576019 h 11.750035 v 1.576019 z m 11.372792 0 v -1.576019 h 11.750035 v 1.576019 z m 16.502567 10.421529 v -10.421529 h -5.126078 v -1.576019 h 6.609164 v 11.997548 z m -61.823603 -22.258175" stroke="#848688" stroke-linecap="round" stroke-width="0.623622" transform="matrix(1.05618 0 0 0.946808 368.000031 -171.99912)"/>
    </g>
    <path d="m 27.21875 36.875 v -11.359375 h 6.996094 v 1.492187 h -5.429688 v 9.867188 z m 6.597656 -9.867188 v -1.492187 h 12.410156 v 1.492187 z m 12.019532 0 v -1.492187 h 12.410156 v 1.492187 z m 12.019531 0 v -1.492187 h 12.410156 v 1.492187 z m 12.011719 0 v -1.492187 h 12.410156 v 1.492187 z m 17.429687 9.867188 v -9.867188 h -5.414063 v -1.492187 h 6.980469 v 11.359375 z m -65.296875 -21.074219"/>
    <path d="m -322.654439 244.232514 v -22.43558 h 1.483086 v 22.43558 z m 10.451873 -6.246317 c 1.568151 0 2.662897 -0.38369 3.280542 -1.159323 c 0.625041 -0.767381 0.939411 -2.161869 0.939411 -4.18759 c 0 -2.029846 -0.310672 -3.42846 -0.924617 -4.199966 c -0.617645 -0.771507 -1.712392 -1.159323 -3.295336 -1.159323 h -0.876537 v 10.706202 z m 0.04808 -12.236839 c 2.10073 0 3.64669 0.561096 4.63788 1.687413 c 1.002285 1.118066 1.501578 2.850862 1.501578 5.202513 c 0 2.355778 -0.499293 4.092699 -1.501578 5.202514 c -0.99119 1.118065 -2.53715 1.675036 -4.63788 1.675036 h -2.799741 v -13.767476 z m 14.331566 7.265366 c 0.477103 0.127896 0.880236 0.358936 1.216796 0.705495 c 0.343958 0.334182 0.765583 1.010798 1.264877 2.029847 l 1.875123 3.766768 h -1.997173 l -1.64212 -3.486221 c -0.480801 -0.986043 -0.906125 -1.625527 -1.27967 -1.906075 c -0.377244 -0.280548 -0.872839 -0.420822 -1.486784 -0.420822 h -1.778964 v 5.813118 h -1.875124 v -13.767476 h 3.842709 c 1.508976 0 2.662898 0.342434 3.469164 1.031426 c 0.809965 0.680742 1.216796 1.662659 1.216796 2.954005 c 0 0.907655 -0.247797 1.646156 -0.74709 2.219629 c -0.495595 0.573472 -1.18351 0.928283 -2.07854 1.060306 z m -3.827915 -5.734729 v 4.893085 h 2.045253 c 0.883934 0 1.54596 -0.198034 1.986078 -0.594102 c 0.436419 -0.408444 0.654629 -1.019048 0.654629 -1.844189 c 0 -0.78801 -0.233004 -1.394488 -0.702709 -1.811185 c -0.462309 -0.429073 -1.131732 -0.643609 -2.015666 -0.643609 z m 13.876655 0.111394 l -1.967586 7.046703 h 3.920377 z m -1.124335 -1.642031 h 2.248669 l 4.219953 13.767476 h -1.923204 l -1.01338 -3.593489 h -4.8302 l -0.998587 3.593489 h -1.923204 z m 6.81258 0 h 1.812249 l 1.32775 11.172408 l 1.564453 -7.389137 h 1.952791 l 1.575548 7.405639 l 1.331449 -11.18891 h 1.812249 l -2.063745 13.767476 h -1.76417 l -1.86033 -8.189523 l -1.875123 8.189523 h -1.749376 z m 16.313945 18.483156 v -22.43558 h 1.483086 v 22.43558 z m 11.37649 0 v -10.421529 h -5.122379 v -1.57602 h 6.609163 v 11.997549 z m -73.200093 -22.258175" fill="none" stroke="#848688" stroke-linecap="round" stroke-linejoin="bevel" stroke-width="0.623622" transform="matrix(1.05618 0 0 0.946808 368.000031 -171.99912)"/>
    <path d="m 27.21875 59.242188 v -21.242188 h 1.566406 v 21.242188 z m 11.039062 -5.914063 c 1.65625 0 2.8125 -0.363281 3.464844 -1.097656 c 0.660156 -0.726563 0.992188 -2.046875 0.992188 -3.964844 c 0 -1.921875 -0.328125 -3.246094 -0.976563 -3.976563 c -0.652343 -0.730468 -1.808593 -1.097656 -3.480469 -1.097656 h -0.925781 v 10.136719 z m 0.050782 -11.585937 c 2.21875 0 3.851562 0.53125 4.898437 1.597656 c 1.058594 1.058594 1.585938 2.699218 1.585938 4.925781 c 0 2.230469 -0.527344 3.875 -1.585938 4.925781 c -1.046875 1.058594 -2.679687 1.585938 -4.898437 1.585938 h -2.957032 v -13.035156 z m 15.136718 6.878906 c 0.503907 0.121094 0.929688 0.339844 1.285157 0.667968 c 0.363281 0.316407 0.808593 0.957032 1.335937 1.921876 l 1.980469 3.566406 h -2.109375 l -1.734375 -3.300782 c -0.507813 -0.933593 -0.957031 -1.539062 -1.351563 -1.804687 c -0.398437 -0.265625 -0.921874 -0.398437 -1.570312 -0.398437 h -1.878906 v 5.503906 h -1.980469 v -13.035156 h 4.058594 c 1.59375 0 2.8125 0.324218 3.664062 0.976562 c 0.855469 0.644531 1.285157 1.574219 1.285157 2.796875 c 0 0.859375 -0.261719 1.558594 -0.789063 2.101563 c -0.523437 0.542968 -1.25 0.878906 -2.195313 1.003906 z m -4.042968 -5.429688 v 4.632813 h 2.160156 c 0.933594 0 1.632812 -0.1875 2.097656 -0.5625 c 0.460938 -0.386719 0.691406 -0.964844 0.691406 -1.746094 c 0 -0.746094 -0.246093 -1.320313 -0.742187 -1.714844 c -0.488281 -0.40625 -1.195313 -0.609375 -2.128906 -0.609375 z m 14.65625 0.105469 l -2.078125 6.671875 h 4.140625 z m -1.1875 -1.554687 h 2.375 l 4.457031 13.035156 h -2.03125 l -1.070313 -3.402344 h -5.101562 l -1.054688 3.402344 h -2.03125 z m 7.195312 0 h 1.914063 l 1.402343 10.578124 l 1.652344 -6.996093 h 2.0625 l 1.664063 7.011719 l 1.40625 -10.59375 h 1.914062 l -2.179687 13.035156 h -1.863282 l -1.964843 -7.753906 l -1.980469 7.753906 h -1.847656 z m 17.230469 17.5 v -21.242188 h 1.566406 v 21.242188 z m 12.015625 0 v -9.867188 h -5.410156 v -1.492188 h 6.980468 v 11.359376 z m -77.3125 -21.074219"/>
    <path d="m -322.654439 257.430642 v -12.018177 h 1.483086 v 10.438032 h 5.140872 v 1.580145 z m 6.246714 0 v -1.580145 h 11.750035 v 1.580145 z m 11.380188 0 v -1.580145 h 11.750035 v 1.580145 z m 11.380188 0 v -1.580145 h 11.750035 v 1.580145 z m 11.372792 0 v -1.580145 h 11.750035 v 1.580145 z m 11.376489 0 v -1.580145 h 5.126078 v -10.438032 h 1.483086 v 12.018177 z m 16.502568 10.421529 v -22.439706 h 1.486784 v 22.439706 z m -73.200093 -22.258175" fill="none" stroke="#848688" stroke-linecap="round" stroke-linejoin="bevel" stroke-width="0.623622" transform="matrix(1.05618 0 0 0.946808 368.000031 -171.99912)"/>
    <path d="m 27.21875 71.738281 v -11.378906 h 1.566406 v 9.882813 h 5.429688 v 1.496093 z m 6.597656 0 v -1.496093 h 12.410156 v 1.496093 z m 12.019532 0 v -1.496093 h 12.410156 v 1.496093 z m 12.019531 0 v -1.496093 h 12.410156 v 1.496093 z m 12.011719 0 v -1.496093 h 12.410156 v 1.496093 z m 12.015624 0 v -1.496093 h 5.414063 v -9.882813 h 1.566406 v 11.378906 z m 17.429688 9.867188 v -21.246094 h 1.570312 v 21.246094 z m -77.3125 -21.074219"/>
    <path d="m -311.281647 281.054424 v -12.014051 h 1.483086 v 10.438032 h 5.140871 v 1.576019 z m 6.25411 0 v -1.576019 h 11.750035 v 1.576019 z m 11.380188 0 v -1.576019 h 11.750035 v 1.576019 z m 22.12424 -3.156163 l -7.844452 2.954004 l 7.844452 2.920999 v 1.687413 l -9.749163 -3.857534 v -1.534762 l 9.749163 -3.857533 z m 0.625041 3.156163 v -1.576019 h 11.750035 v 1.576019 z m 11.380189 0 v -1.576019 h 5.122379 v -10.438032 h 1.486784 v 12.014051 z m -68.077714 -11.836645" fill="none" stroke="#848688" stroke-linecap="round" stroke-linejoin="bevel" stroke-width="0.623622" transform="matrix(1.05618 0 0 0.946808 368.000031 -171.99912)"/>
    <path d="m 39.230469 94.105469 v -11.375 h 1.566406 v 9.882812 h 5.429687 v 1.492188 z m 6.605469 0 v -1.492188 h 12.410156 v 1.492188 z m 12.019531 0 v -1.492188 h 12.410156 v 1.492188 z m 23.367187 -2.988281 l -8.285156 2.796874 l 8.285156 2.765626 v 1.597656 l -10.296875 -3.652344 v -1.453125 l 10.296875 -3.652344 z m 0.660156 2.988281 v -1.492188 h 12.410157 v 1.492188 z m 12.019532 0 v -1.492188 h 5.410156 v -9.882812 h 1.570312 v 11.375 z m -71.902344 -11.207031"/>
</svg>
