<?xml version="1.0" encoding="UTF-8"?>
<svg height="128px" viewBox="0 0 128 128" width="128px" xmlns="http://www.w3.org/2000/svg" xmlns:xlink="http://www.w3.org/1999/xlink">
    <linearGradient id="a" gradientTransform="matrix(0.232143 0 0 0.328947 -8.566895 263.827845)" gradientUnits="userSpaceOnUse" x1="88.595886" x2="536.595886" y1="-449.394012" y2="-449.394012">
        <stop offset="0" stop-color="#77767b"/>
        <stop offset="0.0384615" stop-color="#c0bfbc"/>
        <stop offset="0.0768555" stop-color="#9a9996"/>
        <stop offset="0.923077" stop-color="#9a9996"/>
        <stop offset="0.961538" stop-color="#c0bfbc"/>
        <stop offset="1" stop-color="#77767b"/>
    </linearGradient>
    <path d="m 20 16 h 88 c 4.417969 0 8 3.582031 8 8 v 84 c 0 4.417969 -3.582031 8 -8 8 h -88 c -4.417969 0 -8 -3.582031 -8 -8 v -84 c 0 -4.417969 3.582031 -8 8 -8 z m 0 0" fill="url(#a)"/>
    <path d="m 20 12 h 88 c 4.417969 0 8 3.582031 8 8 v 84 c 0 4.417969 -3.582031 8 -8 8 h -88 c -4.417969 0 -8 -3.582031 -8 -8 v -84 c 0 -4.417969 3.582031 -8 8 -8 z m 0 0" fill="#deddda"/>
    <path d="m 23.519531 16 h 80.960938 c 4.066406 0 7.359375 3.296875 7.359375 7.359375 v 77.28125 c 0 4.066406 -3.292969 7.359375 -7.359375 7.359375 h -80.960938 c -4.066406 0 -7.359375 -3.292969 -7.359375 -7.359375 v -77.28125 c 0 -4.0625 3.292969 -7.359375 7.359375 -7.359375 z m 0 0" fill="#ffffff"/>
    <path d="m -324.936926 200.638892 v 4.190867 h 4.188315 v 1.593997 h -4.188315 v 4.186791 h -1.579508 v -4.186791 h -4.188315 v -1.593997 h 4.188315 v -4.190867 z m 8.387859 4.96952 h 4.903211 v 1.549154 h -4.903211 z m 11.617989 0 h 4.906954 v 1.549154 h -4.906954 z m 11.621732 0 h 4.906954 v 1.549154 h -4.906954 z m 11.621733 0 h 4.906953 v 1.549154 h -4.906953 z m 11.621732 0 h 4.906954 v 1.549154 h -4.906954 z m 14.855606 -4.96952 v 4.190867 h 4.188315 v 1.593997 h -4.188315 v 4.186791 h -1.579508 v -4.186791 h -4.188315 v -1.593997 h 4.188315 v -4.190867 z m -76.321657 -6.885579" fill="none" stroke="#c0bfbc" stroke-linecap="round" stroke-linejoin="bevel" stroke-width="1.38331" transform="matrix(1.04364 0 0 0.958185 368.000031 -171.99912)"/>
    <path d="m 28.882812 20.25 v 4.015625 h 4.371094 v 1.527344 h -4.371094 v 4.011719 h -1.648437 v -4.011719 h -4.371094 v -1.527344 h 4.371094 v -4.015625 z m 8.753907 4.761719 h 5.117187 v 1.484375 h -5.117187 z m 12.125 0 h 5.121093 v 1.484375 h -5.121093 z m 12.128906 0 h 5.121094 v 1.484375 h -5.121094 z m 12.128906 0 h 5.121094 v 1.484375 h -5.121094 z m 12.128907 0 h 5.121093 v 1.484375 h -5.121093 z m 15.503906 -4.761719 v 4.015625 h 4.371094 v 1.527344 h -4.371094 v 4.011719 h -1.648438 v -4.011719 h -4.371094 v -1.527344 h 4.371094 v -4.015625 z m -79.652344 -6.597656"/>
    <path d="m -324.921955 221.046948 v 19.295111 h -1.60945 v -19.295111 z m 10.809522 2.36042 l -2.002457 7.203563 h 4.016142 z m -1.141588 -1.671455 h 2.313118 l 4.296859 14.060605 h -1.96877 l -1.033042 -3.673124 h -4.936897 l -1.014329 3.673124 h -1.96877 z m 16.495 0.468823 v 1.936442 c -0.572665 -0.375059 -1.152816 -0.656352 -1.732967 -0.843881 c -0.587637 -0.187529 -1.167787 -0.281294 -1.751681 -0.281294 c -0.905784 0 -1.62068 0.211989 -2.140944 0.623738 c -0.520264 0.419902 -0.778525 0.986566 -0.778525 1.704069 c 0 0.615584 0.172174 1.088484 0.516521 1.422775 c 0.340605 0.322061 0.984385 0.591124 1.920113 0.811267 l 0.999356 0.23645 c 1.313761 0.301677 2.271946 0.786806 2.874554 1.451312 c 0.602609 0.656351 0.905784 1.55323 0.905784 2.686557 c 0 1.337164 -0.415463 2.356344 -1.250131 3.061617 c -0.82344 0.701195 -2.024914 1.047716 -3.608165 1.047716 c -0.655009 0 -1.321246 -0.073381 -1.983741 -0.216066 c -0.669981 -0.134531 -1.339962 -0.346521 -2.017428 -0.627814 v -2.0139 c 0.729867 0.46067 1.411076 0.79496 2.047371 1.015103 c 0.64378 0.21199 1.298789 0.313908 1.953798 0.313908 c 0.958185 0 1.703024 -0.21199 2.234517 -0.644122 c 0.538979 -0.436209 0.812211 -1.035487 0.812211 -1.810063 c 0 -0.709349 -0.187145 -1.2434 -0.561436 -1.610304 c -0.366805 -0.375058 -0.999357 -0.660429 -1.905141 -0.860188 l -1.018071 -0.232373 c -1.310018 -0.301677 -2.26446 -0.750116 -2.859582 -1.345317 c -0.583894 -0.591125 -0.872098 -1.394238 -0.872098 -2.405265 c 0 -1.251552 0.419206 -2.254425 1.265103 -3.016772 c 0.842155 -0.75827 1.96877 -1.141481 3.372361 -1.141481 c 0.531493 0 1.096672 0.065227 1.688052 0.187529 c 0.602608 0.126378 1.23516 0.309831 1.890169 0.550357 z m 12.201883 13.090345 c -0.482835 0.264987 -0.976899 0.456593 -1.485935 0.578894 c -0.512778 0.126379 -1.0555 0.187529 -1.624422 0.187529 c -1.804082 0 -3.20393 -0.631891 -4.203287 -1.903827 c -0.991871 -1.271937 -1.485935 -3.065693 -1.485935 -5.377193 c 0 -2.29927 0.50155 -4.093026 1.500907 -5.373116 c 0.999356 -1.288243 2.395461 -1.940518 4.188315 -1.940518 c 0.568922 0 1.111644 0.073381 1.624422 0.203836 c 0.509036 0.126378 1.0031 0.322061 1.485935 0.578894 v 1.952748 c -0.471606 -0.383211 -0.969413 -0.676735 -1.500906 -0.872418 c -0.531493 -0.207912 -1.070472 -0.313907 -1.609451 -0.313907 c -1.242646 0 -2.167144 0.481053 -2.780982 1.439082 c -0.617579 0.958029 -0.920755 2.401188 -0.920755 4.325399 c 0 1.920135 0.303176 3.35514 0.920755 4.313169 c 0.613838 0.962106 1.538336 1.439082 2.780982 1.439082 c 0.550207 0 1.092929 -0.097842 1.624422 -0.297601 c 0.531493 -0.207912 1.021814 -0.505513 1.485935 -0.892801 z m 3.402304 -13.559168 h 7.811451 v 1.593997 h -2.953155 v 10.856304 h 2.953155 v 1.610304 h -7.811451 v -1.610304 h 2.953156 v -10.856304 h -2.953156 z m 11.61799 0 h 7.815194 v 1.593997 h -2.953156 v 10.856304 h 2.953156 v 1.610304 h -7.815194 v -1.610304 h 2.953155 v -10.856304 h -2.953155 z m 16.34154 -0.688965 v 19.295111 h -1.609451 v -19.295111 z m -76.336628 -3.167611" fill="none" stroke="#c0bfbc" stroke-linecap="round" stroke-linejoin="bevel" stroke-width="1.38331" transform="matrix(1.04364 0 0 0.958185 368.000031 -171.99912)"/>
    <path d="m 28.898438 39.804688 v 18.488281 h -1.679688 v -18.488281 z m 11.28125 2.261718 l -2.089844 6.902344 h 4.191406 z m -1.191407 -1.601562 h 2.414063 l 4.484375 13.472656 h -2.054688 l -1.078125 -3.519531 h -5.152344 l -1.058593 3.519531 h -2.054688 z m 17.214844 0.449218 v 1.855469 c -0.597656 -0.359375 -1.203125 -0.628906 -1.808594 -0.808593 c -0.613281 -0.179688 -1.21875 -0.269532 -1.828125 -0.269532 c -0.945312 0 -1.691406 0.203125 -2.234375 0.597656 c -0.542969 0.402344 -0.8125 0.945313 -0.8125 1.632813 c 0 0.589844 0.179688 1.042969 0.539063 1.363281 c 0.355468 0.308594 1.027344 0.566406 2.003906 0.777344 l 1.042969 0.226562 c 1.371093 0.289063 2.371093 0.753907 3 1.390626 c 0.628906 0.628906 0.945312 1.488281 0.945312 2.574218 c 0 1.28125 -0.433593 2.257813 -1.304687 2.933594 c -0.859375 0.671875 -2.113282 1.003906 -3.765625 1.003906 c -0.683594 0 -1.378907 -0.070312 -2.070313 -0.207031 c -0.699218 -0.128906 -1.398437 -0.332031 -2.105468 -0.601563 v -1.929687 c 0.761718 0.441406 1.472656 0.761719 2.136718 0.972656 c 0.671875 0.203125 1.355469 0.300781 2.039063 0.300781 c 1 0 1.777343 -0.203124 2.332031 -0.617187 c 0.5625 -0.417969 0.847656 -0.992187 0.847656 -1.734375 c 0 -0.679688 -0.195312 -1.191406 -0.585937 -1.542969 c -0.382813 -0.359375 -1.042969 -0.632812 -1.988281 -0.824219 l -1.0625 -0.222656 c -1.367188 -0.289062 -2.363282 -0.71875 -2.984376 -1.289062 c -0.609374 -0.566406 -0.910156 -1.335938 -0.910156 -2.304688 c 0 -1.199218 0.4375 -2.160156 1.320313 -2.890625 c 0.878906 -0.726562 2.054687 -1.09375 3.519531 -1.09375 c 0.554688 0 1.144531 0.0625 1.761719 0.179688 c 0.628906 0.121093 1.289062 0.296875 1.972656 0.527343 z m 12.734375 12.542969 c -0.503906 0.253907 -1.019531 0.4375 -1.550781 0.554688 c -0.535157 0.121093 -1.101563 0.179687 -1.695313 0.179687 c -1.882812 0 -3.34375 -0.605468 -4.386718 -1.824218 c -1.035157 -1.21875 -1.550782 -2.9375 -1.550782 -5.152344 c 0 -2.203125 0.523438 -3.921875 1.566406 -5.148438 c 1.042969 -1.234375 2.5 -1.859375 4.371094 -1.859375 c 0.59375 0 1.160156 0.070313 1.695313 0.195313 c 0.53125 0.121094 1.046875 0.308594 1.550781 0.554687 v 1.871094 c -0.492188 -0.367187 -1.011719 -0.648437 -1.566406 -0.835937 c -0.554688 -0.199219 -1.117188 -0.300782 -1.679688 -0.300782 c -1.296875 0 -2.261718 0.460938 -2.902344 1.378906 c -0.644531 0.917969 -0.960937 2.300782 -0.960937 4.144532 c 0 1.839844 0.316406 3.214844 0.960937 4.132812 c 0.640626 0.921875 1.605469 1.378906 2.902344 1.378906 c 0.574219 0 1.140625 -0.09375 1.695313 -0.285156 c 0.554687 -0.199218 1.066406 -0.484375 1.550781 -0.855468 z m 3.550781 -12.992187 h 8.152344 v 1.527344 h -3.082031 v 10.402343 h 3.082031 v 1.542969 h -8.152344 v -1.542969 h 3.082031 v -10.402343 h -3.082031 z m 12.125 0 h 8.15625 v 1.527344 h -3.082031 v 10.402343 h 3.082031 v 1.542969 h -8.15625 v -1.542969 h 3.082031 v -10.402343 h -3.082031 z m 17.054688 -0.660156 v 18.488281 h -1.679688 v -18.488281 z m -79.667969 -3.035157"/>
    <path d="m -324.936926 248.89094 v 4.18679 h 4.188315 v 1.593997 h -4.188315 v 4.186791 h -1.579508 v -4.186791 h -4.188315 v -1.593997 h 4.188315 v -4.18679 z m 8.387859 4.96952 h 4.903211 v 1.545077 h -4.903211 z m 14.855605 -4.96952 v 4.18679 h 4.184573 v 1.593997 h -4.184573 v 4.186791 h -1.579507 v -4.186791 h -4.188315 v -1.593997 h 4.188315 v -4.18679 z m 8.384116 4.96952 h 4.906954 v 1.545077 h -4.906954 z m 11.621733 0 h 4.906953 v 1.545077 h -4.906953 z m 11.621732 0 h 4.906954 v 1.545077 h -4.906954 z m 14.855606 -4.96952 v 4.18679 h 4.188315 v 1.593997 h -4.188315 v 4.186791 h -1.579508 v -4.186791 h -4.188315 v -1.593997 h 4.188315 v -4.18679 z m -76.321657 -6.881502" fill="none" stroke="#c0bfbc" stroke-linecap="round" stroke-linejoin="bevel" stroke-width="1.38331" transform="matrix(1.04364 0 0 0.958185 368.000031 -171.99912)"/>
    <path d="m 28.882812 66.484375 v 4.011719 h 4.371094 v 1.527344 h -4.371094 v 4.011718 h -1.648437 v -4.011718 h -4.371094 v -1.527344 h 4.371094 v -4.011719 z m 8.753907 4.761719 h 5.117187 v 1.480468 h -5.117187 z m 15.503906 -4.761719 v 4.011719 h 4.367187 v 1.527344 h -4.367187 v 4.011718 h -1.648437 v -4.011718 h -4.371094 v -1.527344 h 4.371094 v -4.011719 z m 8.75 4.761719 h 5.121094 v 1.480468 h -5.121094 z m 12.128906 0 h 5.121094 v 1.480468 h -5.121094 z m 12.128907 0 h 5.121093 v 1.480468 h -5.121093 z m 15.503906 -4.761719 v 4.011719 h 4.371094 v 1.527344 h -4.371094 v 4.011718 h -1.648438 v -4.011718 h -4.371094 v -1.527344 h 4.371094 v -4.011719 z m -79.652344 -6.59375"/>
    <path d="m -328.765922 269.983884 l 7.407217 15.858438 h -1.796596 l -7.407217 -15.858438 z m 20.481198 17.860107 v 0.750116 h -11.625475 v -0.750116 z m 8.073454 -13.000657 v -5.454651 h 1.732967 v 14.659883 h -1.732967 v -1.329011 c -0.280718 0.52182 -0.666237 0.917262 -1.156559 1.186325 c -0.479092 0.269064 -1.029299 0.407672 -1.654365 0.407672 c -1.276332 0 -2.279432 -0.489206 -3.016785 -1.471695 c -0.729867 -0.986566 -1.092929 -2.356344 -1.092929 -4.109333 c 0 -1.704069 0.363062 -3.049386 1.092929 -4.027799 c 0.737353 -0.978412 1.740453 -1.471695 3.016785 -1.471695 c 0.632551 0 1.190245 0.142685 1.669337 0.423978 c 0.490321 0.273141 0.868355 0.668582 1.141587 1.186326 z m -5.094099 3.93811 c 0 1.345318 0.213346 2.360421 0.640038 3.04531 c 0.426691 0.680812 1.0555 1.015103 1.890169 1.015103 c 0.845897 0 1.478449 -0.342445 1.908883 -1.027334 c 0.437921 -0.688965 0.655009 -1.695915 0.655009 -3.033079 c 0 -1.345317 -0.217088 -2.36042 -0.655009 -3.045309 c -0.430434 -0.688965 -1.062986 -1.03141 -1.908883 -1.03141 c -0.834669 0 -1.463478 0.342445 -1.890169 1.03141 c -0.426692 0.684889 -0.640038 1.699992 -0.640038 3.045309 z m 19.511785 -3.110536 c -0.366805 -0.289447 -0.741096 -0.49736 -1.122873 -0.623738 c -0.389263 -0.134532 -0.808468 -0.203836 -1.268846 -0.203836 c -1.074215 0 -1.897655 0.338367 -2.466577 1.015103 c -0.576408 0.680812 -0.860869 1.659224 -0.860869 2.939314 v 5.250815 h -1.747939 v -10.55055 h 1.747939 v 2.06282 c 0.291947 -0.750116 0.73361 -1.31678 1.328732 -1.716298 c 0.602609 -0.407672 1.317504 -0.611508 2.140944 -0.611508 c 0.426692 0 0.819697 0.06115 1.186502 0.171222 c 0.374291 0.105995 0.726125 0.277217 1.062987 0.501436 z m 7.354816 3.061616 h -0.561437 c -1.021814 0 -1.78911 0.183452 -2.298146 0.550357 c -0.509035 0.354674 -0.763553 0.880571 -0.763553 1.57769 c 0 0.635968 0.190888 1.133328 0.576408 1.483926 c 0.385519 0.354675 0.917012 0.529973 1.594479 0.529973 c 0.958185 0 1.706766 -0.330214 2.249488 -0.998796 c 0.538979 -0.664505 0.815954 -1.581767 0.827183 -2.751785 v -0.391365 z m 3.376104 -0.701196 v 6.017238 h -1.751682 v -1.565461 c -0.374291 0.627815 -0.842154 1.092561 -1.403591 1.390162 c -0.55395 0.289447 -1.23516 0.440285 -2.047371 0.440285 c -1.074215 0 -1.935084 -0.301677 -2.578864 -0.909108 c -0.636295 -0.599278 -0.954442 -1.410545 -0.954442 -2.433801 c 0 -1.165942 0.396748 -2.054667 1.190245 -2.658021 c 0.789754 -0.611508 1.94257 -0.921339 3.465934 -0.921339 h 2.328089 v -0.281293 c -0.011229 -0.843881 -0.224574 -1.455389 -0.640037 -1.830447 c -0.415463 -0.379135 -1.089187 -0.574818 -2.013685 -0.574818 c -0.595123 0 -1.197731 0.089688 -1.796597 0.264987 c -0.595122 0.167145 -1.179016 0.411749 -1.751681 0.733809 v -1.736682 c 0.632552 -0.23645 1.242646 -0.419902 1.830282 -0.54628 c 0.59138 -0.122302 1.164045 -0.187529 1.717996 -0.187529 c 0.87584 0 1.616936 0.134531 2.234516 0.391365 c 0.625066 0.26091 1.122873 0.648198 1.500907 1.157788 c 0.235803 0.309831 0.407977 0.701196 0.512778 1.170018 c 0.101059 0.46067 0.157203 1.153712 0.157203 2.079127 z m 1.635651 -4.533312 h 1.721738 l 1.826539 8.516267 l 1.515879 -5.434267 h 1.482191 l 1.515879 5.434267 l 1.845254 -8.516267 h 1.717995 l -2.466577 10.55055 h -1.67308 l -1.688052 -5.784865 l -1.673081 5.784865 h -1.654365 z m -58.104919 -7.366631" fill="none" stroke="#c0bfbc" stroke-linecap="round" stroke-linejoin="bevel" stroke-width="1.38331" transform="matrix(1.04364 0 0 0.958185 368.000031 -171.99912)"/>
    <path d="m 24.886719 86.695312 l 7.730469 15.195313 h -1.875 l -7.730469 -15.195313 z m 21.375 17.113282 v 0.71875 h -12.132813 v -0.71875 z m 8.425781 -12.457032 v -5.226562 h 1.808594 v 14.046875 h -1.808594 v -1.273437 c -0.292969 0.5 -0.695312 0.878906 -1.207031 1.136718 c -0.5 0.257813 -1.074219 0.390625 -1.726563 0.390625 c -1.332031 0 -2.378906 -0.46875 -3.148437 -1.410156 c -0.761719 -0.945313 -1.140625 -2.257813 -1.140625 -3.9375 c 0 -1.632813 0.378906 -2.921875 1.140625 -3.859375 c 0.769531 -0.9375 1.816406 -1.410156 3.148437 -1.410156 c 0.660156 0 1.242188 0.136718 1.742188 0.40625 c 0.511718 0.261718 0.90625 0.640625 1.191406 1.136718 z m -5.316406 3.773438 c 0 1.289062 0.222656 2.261719 0.667968 2.917969 c 0.445313 0.652343 1.101563 0.972656 1.972657 0.972656 c 0.882812 0 1.542969 -0.328125 1.992187 -0.984375 c 0.457032 -0.660156 0.683594 -1.625 0.683594 -2.90625 c 0 -1.289062 -0.226562 -2.261719 -0.683594 -2.917969 c -0.449218 -0.660156 -1.109375 -0.988281 -1.992187 -0.988281 c -0.871094 0 -1.527344 0.328125 -1.972657 0.988281 c -0.445312 0.65625 -0.667968 1.628907 -0.667968 2.917969 z m 20.363281 -2.980469 c -0.382813 -0.277343 -0.773437 -0.476562 -1.171875 -0.597656 c -0.40625 -0.128906 -0.84375 -0.195313 -1.324219 -0.195313 c -1.121093 0 -1.980469 0.324219 -2.574219 0.972657 c -0.601562 0.652343 -0.898437 1.589843 -0.898437 2.816406 v 5.03125 h -1.824219 v -10.109375 h 1.824219 v 1.976562 c 0.304687 -0.71875 0.765625 -1.261718 1.386719 -1.644531 c 0.628906 -0.390625 1.375 -0.585937 2.234375 -0.585937 c 0.445312 0 0.855469 0.058594 1.238281 0.164062 c 0.390625 0.101563 0.757812 0.265625 1.109375 0.480469 z m 7.675781 2.933594 h -0.585937 c -1.066407 0 -1.867188 0.175781 -2.398438 0.527344 c -0.53125 0.339843 -0.796875 0.84375 -0.796875 1.511719 c 0 0.609374 0.199219 1.085937 0.601563 1.421874 c 0.402343 0.339844 0.957031 0.507813 1.664062 0.507813 c 1 0 1.78125 -0.316406 2.347657 -0.957031 c 0.5625 -0.636719 0.851562 -1.515625 0.863281 -2.636719 v -0.375 z m 3.523438 -0.671875 v 5.765625 h -1.828125 v -1.5 c -0.390625 0.601563 -0.878907 1.046875 -1.464844 1.332031 c -0.578125 0.277344 -1.289063 0.421875 -2.136719 0.421875 c -1.121094 0 -2.019531 -0.289062 -2.691406 -0.871093 c -0.664062 -0.574219 -0.996094 -1.351563 -0.996094 -2.332032 c 0 -1.117187 0.414063 -1.96875 1.242188 -2.546875 c 0.824218 -0.585937 2.027344 -0.882812 3.617187 -0.882812 h 2.429688 v -0.269531 c -0.011719 -0.808594 -0.234375 -1.394532 -0.667969 -1.753907 c -0.433594 -0.363281 -1.136719 -0.550781 -2.101562 -0.550781 c -0.621094 0 -1.25 0.085938 -1.875 0.253906 c -0.621094 0.160156 -1.230469 0.394532 -1.828126 0.703125 v -1.664062 c 0.660157 -0.226563 1.296876 -0.402344 1.910157 -0.523438 c 0.617187 -0.117187 1.214843 -0.179687 1.792969 -0.179687 c 0.914062 0 1.6875 0.128906 2.332031 0.375 c 0.652343 0.25 1.171875 0.621094 1.566406 1.109375 c 0.246094 0.296875 0.425781 0.671875 0.535156 1.121093 c 0.105469 0.441407 0.164063 1.105469 0.164063 1.992188 z m 1.707031 -4.34375 h 1.796875 l 1.90625 8.160156 l 1.582031 -5.207031 h 1.546875 l 1.582032 5.207031 l 1.925781 -8.160156 h 1.792969 l -2.574219 10.109375 h -1.746094 l -1.761719 -5.542969 l -1.746094 5.542969 h -1.726562 z m -60.640625 -7.058594"/>
</svg>
