<?xml version="1.0" encoding="UTF-8"?>
<svg height="128px" viewBox="0 0 128 128" width="128px" xmlns="http://www.w3.org/2000/svg" xmlns:xlink="http://www.w3.org/1999/xlink">
    <linearGradient id="a" gradientTransform="matrix(0.232143 0 0 0.328947 -8.566895 263.827845)" gradientUnits="userSpaceOnUse" x1="88.595886" x2="536.595886" y1="-449.394012" y2="-449.394012">
        <stop offset="0" stop-color="#a51d2d"/>
        <stop offset="0.0384615" stop-color="#f66151"/>
        <stop offset="0.0768555" stop-color="#a51d2d"/>
        <stop offset="0.923077" stop-color="#a51d2d"/>
        <stop offset="0.961538" stop-color="#f66151"/>
        <stop offset="1" stop-color="#a51d2d"/>
    </linearGradient>
    <path d="m 20 16 h 88 c 4.417969 0 8 3.582031 8 8 v 84 c 0 4.417969 -3.582031 8 -8 8 h -88 c -4.417969 0 -8 -3.582031 -8 -8 v -84 c 0 -4.417969 3.582031 -8 8 -8 z m 0 0" fill="url(#a)"/>
    <path d="m 20 12 h 88 c 4.417969 0 8 3.582031 8 8 v 84 c 0 4.417969 -3.582031 8 -8 8 h -88 c -4.417969 0 -8 -3.582031 -8 -8 v -84 c 0 -4.417969 3.582031 -8 8 -8 z m 0 0" fill="#a51d2d"/>
    <path d="m 24.359375 19 h 79.351563 c 4.0625 0 7.359374 3.296875 7.359374 7.359375 v 78.28125 c 0 4.0625 -3.296874 7.359375 -7.359374 7.359375 h -79.351563 c -4.0625 0 -7.359375 -3.296875 -7.359375 -7.359375 v -78.28125 c 0 -4.0625 3.296875 -7.359375 7.359375 -7.359375 z m 0 0" fill="#ffffff"/>
    <path d="m -322.654439 225.741107 v -11.997548 h 6.623958 v 1.576019 h -5.140872 v 10.421529 z m 6.246714 -10.421529 v -1.576019 h 11.750035 v 1.576019 z m 11.380188 0 v -1.576019 h 11.750035 v 1.576019 z m 16.502568 10.421529 v -10.421529 h -5.12238 v -1.576019 h 6.609164 v 11.997548 z m 6.250412 -10.421529 v -1.576019 h 11.750035 v 1.576019 z m 16.502567 10.421529 v -10.421529 h -5.126078 v -1.576019 h 6.609164 v 11.997548 z m -61.823603 -22.258175" stroke="#000000" stroke-linejoin="round" transform="matrix(1.05618 0 0 0.946808 368.000031 -171.99912)"/>
    <path d="m -322.654439 249.369015 v -22.439705 h 1.483086 v 22.439705 z m 14.638539 -18.487281 h 1.749376 l -7.248998 15.516774 h -1.76417 z m 11.380189 0 h 1.749375 l -7.248998 15.516774 h -1.767868 z m 8.110742 18.487281 v -22.439705 h 1.486784 v 22.439705 z m 23.50007 -4.001933 l -5.625371 -11.250795 h 11.250742 z m -62.570694 -18.260367" stroke="#000000" stroke-linejoin="round" transform="matrix(1.05618 0 0 0.946808 368.000031 -171.99912)"/>
    <path d="m -322.654439 262.563018 v -12.018177 h 1.483086 v 10.438032 h 5.140872 v 1.580145 z m 6.246714 0 v -1.580145 h 11.750035 v 1.580145 z m 11.380188 0 v -1.580145 h 11.750035 v 1.580145 z m 11.380188 0 v -1.580145 h 5.12238 v -10.438032 h 1.486784 v 12.018177 z m 16.498869 10.421529 v -12.001674 h 6.623958 v 1.580145 h -5.140872 v 10.421529 z m 6.250412 -10.421529 v -1.580145 h 11.750035 v 1.580145 z m 16.502568 10.421529 v -10.421529 h -5.122379 v -1.580145 h 6.609163 v 12.001674 z m -73.200093 -22.258175" stroke="#000000" stroke-linejoin="round" transform="matrix(1.05618 0 0 0.946808 368.000031 -171.99912)"/>
    <path d="m -322.654439 286.186801 v -12.014051 h 1.483086 v 10.438032 h 5.140872 v 1.576019 z m 6.246714 0 v -1.576019 h 11.750035 v 1.576019 z m 11.380188 0 v -1.576019 h 11.750035 v 1.576019 z m 12.378775 -3.156164 v -1.687413 l 9.749163 3.861659 v 1.530636 l -9.749163 3.857534 v -1.687413 l 7.844452 -2.920999 z m 15.500282 3.156164 v -12.014051 h 1.483086 v 10.438032 h 5.140872 v 1.576019 z m 6.250412 0 v -1.576019 h 11.750035 v 1.576019 z m 11.380189 0 v -1.576019 h 5.122379 v -10.438032 h 1.486784 v 12.014051 z m -68.077714 -11.840772" stroke="#000000" stroke-linejoin="round" transform="matrix(1.05618 0 0 0.946808 368.000031 -171.99912)"/>
    <g fill="none" stroke="#deddda" stroke-linejoin="bevel">
        <path d="m -321.000031 188.000006 v 91.999058" stroke-width="2.04494" transform="matrix(1 0 0 0.967401 355.000031 -162.871433)"/>
        <path d="m -309.000031 188.000006 v 91.999058" stroke-width="2.04494" transform="matrix(1 0 0 0.967401 355.000031 -162.871433)"/>
        <path d="m -297.000031 188.000006 v 91.999058" stroke-width="2.04494" transform="matrix(1 0 0 0.967401 355.000031 -162.871433)"/>
        <path d="m -285.000031 188.000006 v 91.999058" stroke-width="2.04494" transform="matrix(1 0 0 0.967401 355.000031 -162.871433)"/>
        <path d="m -273.000031 188.000006 v 91.999058" stroke-width="2.04494" transform="matrix(1 0 0 0.967401 355.000031 -162.871433)"/>
        <path d="m -261.000031 188.000006 v 91.999058" stroke-width="2.04494" transform="matrix(1 0 0 0.967401 355.000031 -162.871433)"/>
        <path d="m -242.999726 209.139235 h -95.840551" stroke-width="1.9729" transform="matrix(0.985157 0 0 1.030858 350.463139 -173.69823)"/>
        <path d="m -242.999726 230.825517 h -95.840551" stroke-width="1.9729" transform="matrix(0.985157 0 0 1.030858 350.463139 -173.69823)"/>
        <path d="m -242.999726 252.5118 h -95.840551" stroke-width="1.9729" transform="matrix(0.985157 0 0 1.030858 350.463139 -173.69823)"/>
        <path d="m -242.999726 274.198083 h -95.840551" stroke-width="1.9729" transform="matrix(0.985157 0 0 1.030858 350.463139 -173.69823)"/>
    </g>
    <path d="m 20 12 c -4.433594 0 -8 3.566406 -8 8 v 84 c 0 4.433594 3.566406 8 8 8 h 88 c 4.433594 0 8 -3.566406 8 -8 v -84 c 0 -4.433594 -3.566406 -8 -8 -8 z m 4.191406 5 h 79.617188 c 4.011718 0 7.238281 3.226562 7.238281 7.238281 v 75.761719 c 0 4.011719 -3.226563 6.988281 -7.238281 7 l -79.617188 0.238281 c -4.011718 0.011719 -7.238281 -3.226562 -7.238281 -7.238281 v -75.761719 c 0 -4.011719 3.226563 -7.238281 7.238281 -7.238281 z m 0 0" fill="#ed333b"/>
    <path d="m -265.024899 245.367082 l -5.625371 -11.250795 h 11.250742 z m -62.570694 -18.260367" stroke="#000000" stroke-linejoin="round" transform="matrix(1.05618 0 0 0.946808 368.000031 -171.99912)"/>
</svg>
